<svg width="185" height="213" viewBox="0 0 185 213" fill="none" xmlns="http://www.w3.org/2000/svg">
<path d="M21.0853 189.213C21.3851 188.293 22.687 188.293 22.9869 189.213L24.738 194.587C24.8721 194.999 25.2559 195.277 25.6888 195.277H31.3495C32.3189 195.277 32.7213 196.518 31.9363 197.087L27.3614 200.402C27.0099 200.657 26.8629 201.109 26.9973 201.521L28.7459 206.888C29.0459 207.809 27.9926 208.576 27.2084 208.008L22.6228 204.685C22.2728 204.432 21.7994 204.432 21.4494 204.685L16.8638 208.008C16.0796 208.576 15.0263 207.809 15.3263 206.888L17.0749 201.521C17.2093 201.109 17.0622 200.657 16.7108 200.402L12.1359 197.087C11.3509 196.518 11.7532 195.277 12.7226 195.277H18.3834C18.8163 195.277 19.2001 194.999 19.3342 194.587L21.0853 189.213Z" fill="#120D0E"/>
<path d="M56.1823 189.213C56.4822 188.293 57.7841 188.293 58.0839 189.213L59.835 194.587C59.9691 194.999 60.3529 195.277 60.7858 195.277H66.4466C67.416 195.277 67.8183 196.518 67.0333 197.087L62.4584 200.402C62.107 200.657 61.9599 201.109 62.0943 201.521L63.8429 206.888C64.1429 207.809 63.0897 208.576 62.3054 208.008L57.7199 204.685C57.3698 204.432 56.8965 204.432 56.5464 204.685L51.9609 208.008C51.1766 208.576 50.1233 207.809 50.4233 206.888L52.1719 201.521C52.3064 201.109 52.1593 200.657 51.8078 200.402L47.233 197.087C46.4479 196.518 46.8503 195.277 47.8197 195.277H53.4804C53.9134 195.277 54.2971 194.999 54.4312 194.587L56.1823 189.213Z" fill="#120D0E"/>
<path d="M91.2794 189.213C91.5792 188.293 92.8811 188.293 93.181 189.213L94.9321 194.587C95.0662 194.999 95.45 195.277 95.8829 195.277H101.544C102.513 195.277 102.915 196.518 102.13 197.087L97.5555 200.402C97.204 200.657 97.0569 201.109 97.1914 201.521L98.94 206.888C99.24 207.809 98.1867 208.576 97.4024 208.008L92.8169 204.685C92.4669 204.432 91.9935 204.432 91.6435 204.685L87.0579 208.008C86.2737 208.576 85.2204 207.809 85.5204 206.888L87.269 201.521C87.4034 201.109 87.2563 200.657 86.9049 200.402L82.33 197.087C81.545 196.518 81.9473 195.277 82.9167 195.277H88.5775C89.0104 195.277 89.3942 194.999 89.5283 194.587L91.2794 189.213Z" fill="#120D0E"/>
<path d="M126.377 189.213C126.676 188.293 127.978 188.293 128.278 189.213L130.029 194.587C130.163 194.999 130.547 195.277 130.98 195.277H136.641C137.61 195.277 138.013 196.518 137.228 197.087L132.653 200.402C132.301 200.657 132.154 201.109 132.289 201.521L134.037 206.888C134.337 207.809 133.284 208.576 132.5 208.008L127.914 204.685C127.564 204.432 127.091 204.432 126.741 204.685L122.155 208.008C121.371 208.576 120.318 207.809 120.618 206.888L122.366 201.521C122.501 201.109 122.354 200.657 122.002 200.402L117.427 197.087C116.642 196.518 117.044 195.277 118.014 195.277H123.675C124.108 195.277 124.491 194.999 124.625 194.587L126.377 189.213Z" fill="#120D0E"/>
<path d="M161.474 189.213C161.774 188.293 163.075 188.293 163.375 189.213L165.126 194.587C165.261 194.999 165.644 195.277 166.077 195.277H171.738C172.707 195.277 173.11 196.518 172.325 197.087L167.75 200.402C167.398 200.657 167.251 201.109 167.386 201.521L169.134 206.888C169.434 207.809 168.381 208.576 167.597 208.008L163.011 204.685C162.661 204.432 162.188 204.432 161.838 204.685L157.252 208.008C156.468 208.576 155.415 207.809 155.715 206.888L157.463 201.521C157.598 201.109 157.451 200.657 157.099 200.402L152.524 197.087C151.739 196.518 152.142 195.277 153.111 195.277H158.772C159.205 195.277 159.588 194.999 159.723 194.587L161.474 189.213Z" fill="#120D0E"/>
<path d="M120.694 92.1912L91.6934 100L62.6923 92.1912L56 19.6891L127.387 19.6891L120.694 92.1912Z" fill="#2062AF"/>
<path d="M91.6934 25.562V93.772L91.7589 93.7899L115.228 87.4703L120.645 25.562L91.6934 25.562Z" fill="#3C9CD7"/>
<path d="M75.2343 9.03729V4.72198L81.5304 4.72198V0L70.5123 0V13.3462L81.5304 13.3462V9.03729L75.2343 9.03729ZM92.8563 4.72198L97.258 4.72198V0L86.2389 0V4.72198C87.7132 6.19618 88.482 6.90178 90.6141 9.03388C89.3677 9.03388 86.2389 9.03835 86.2389 9.03814V13.3462L97.258 13.3462V9.03729L92.8563 4.72198ZM108.474 4.72198H112.875V0L101.856 0V4.72198C103.33 6.19618 104.099 6.90178 106.231 9.03388C104.986 9.03388 101.856 9.03835 101.856 9.03814V13.3462L112.876 13.3462V9.03729L108.474 4.72198Z" fill="black"/>
<path d="M91.6674 43.6903L70.9106 52.335L71.599 60.8938L91.6674 52.3133L113.015 43.1861L113.9 34.4307L91.6674 43.6903Z" fill="white"/>
<path d="M70.9105 52.3348L71.5989 60.8936L91.6673 52.3131V43.6902L70.9105 52.3348Z" fill="url(#paint0_linear)"/>
<path d="M113.9 34.4307L91.6675 43.6901V52.313L113.015 43.1859L113.9 34.4307Z" fill="url(#paint1_linear)"/>
<path d="M70.9424 52.3348L71.6309 60.8937L102.424 60.9918L101.735 72.4035L91.6022 75.2561L81.8618 72.7968L81.2716 65.7136H72.2211L73.4017 79.3879L91.7006 84.7984L109.9 79.4861L112.261 52.3348L70.9424 52.3348Z" fill="url(#paint2_linear)"/>
<path opacity="0.05" d="M91.6675 52.3348H70.9106L71.599 60.8937L91.6675 60.9577V52.3348ZM91.6675 75.2289L91.5691 75.2563L81.8301 72.797L81.2399 65.7138H72.1896L73.37 79.3881L91.6675 84.7986V75.2289Z" fill="black"/>
<path d="M69.0411 34.4307L113.9 34.4307L113.015 43.186L70.1232 43.186L69.0411 34.4307Z" fill="url(#paint3_linear)"/>
<path opacity="0.05" d="M91.6674 34.4307H69.0411L70.1232 43.186H91.6674V34.4307Z" fill="black"/>
<path d="M87.1549 128.461C87.0319 129.514 86.6422 130.327 85.986 130.901C85.3343 131.471 84.4661 131.756 83.3815 131.756C82.2057 131.756 81.2623 131.334 80.5514 130.491C79.845 129.648 79.4918 128.52 79.4918 127.107V126.15C79.4918 125.225 79.6559 124.412 79.984 123.71C80.3167 123.008 80.7861 122.47 81.3922 122.097C81.9983 121.718 82.7002 121.529 83.4977 121.529C84.555 121.529 85.4026 121.826 86.0406 122.418C86.6787 123.006 87.0501 123.822 87.1549 124.865H85.8356C85.7216 124.072 85.4733 123.498 85.0905 123.143C84.7122 122.787 84.1813 122.609 83.4977 122.609C82.6591 122.609 82.0006 122.919 81.5221 123.539C81.0481 124.159 80.8112 125.041 80.8112 126.185V127.148C80.8112 128.229 81.0367 129.088 81.4879 129.726C81.9391 130.364 82.5703 130.683 83.3815 130.683C84.1106 130.683 84.6689 130.519 85.0563 130.19C85.4482 129.858 85.708 129.281 85.8356 128.461H87.1549ZM91.8854 127.183C90.7597 126.859 89.9394 126.463 89.4244 125.993C88.914 125.519 88.6588 124.936 88.6588 124.243C88.6588 123.459 88.971 122.812 89.5953 122.302C90.2242 121.787 91.04 121.529 92.0426 121.529C92.7262 121.529 93.3346 121.661 93.8678 121.926C94.4056 122.19 94.8203 122.555 95.1119 123.02C95.4082 123.484 95.5563 123.993 95.5563 124.544H94.2369C94.2369 123.942 94.0455 123.471 93.6627 123.129C93.2799 122.783 92.7399 122.609 92.0426 122.609C91.3955 122.609 90.8896 122.753 90.525 123.04C90.165 123.323 89.985 123.717 89.985 124.223C89.985 124.628 90.1559 124.972 90.4977 125.255C90.844 125.533 91.4296 125.788 92.2545 126.021C93.0839 126.253 93.7311 126.51 94.1959 126.793C94.6653 127.071 95.0117 127.397 95.235 127.771C95.4628 128.144 95.5768 128.584 95.5768 129.09C95.5768 129.896 95.2623 130.544 94.6334 131.031C94.0045 131.514 93.1637 131.756 92.111 131.756C91.4274 131.756 90.7893 131.626 90.1969 131.366C89.6045 131.102 89.1464 130.742 88.8229 130.286C88.5039 129.83 88.3444 129.313 88.3444 128.734H89.6637C89.6637 129.336 89.8847 129.812 90.3268 130.163C90.7734 130.509 91.3681 130.683 92.111 130.683C92.8037 130.683 93.3346 130.541 93.7037 130.259C94.0729 129.976 94.2574 129.591 94.2574 129.104C94.2574 128.616 94.0865 128.24 93.7448 127.976C93.403 127.707 92.7832 127.442 91.8854 127.183ZM100.198 127.183C99.0722 126.859 98.2519 126.463 97.7369 125.993C97.2265 125.519 96.9713 124.936 96.9713 124.243C96.9713 123.459 97.2835 122.812 97.9078 122.302C98.5367 121.787 99.3525 121.529 100.355 121.529C101.039 121.529 101.647 121.661 102.18 121.926C102.718 122.19 103.133 122.555 103.424 123.02C103.721 123.484 103.869 123.993 103.869 124.544H102.549C102.549 123.942 102.358 123.471 101.975 123.129C101.592 122.783 101.052 122.609 100.355 122.609C99.708 122.609 99.2021 122.753 98.8375 123.04C98.4775 123.323 98.2975 123.717 98.2975 124.223C98.2975 124.628 98.4684 124.972 98.8102 125.255C99.1565 125.533 99.7421 125.788 100.567 126.021C101.396 126.253 102.044 126.51 102.508 126.793C102.978 127.071 103.324 127.397 103.547 127.771C103.775 128.144 103.889 128.584 103.889 129.09C103.889 129.896 103.575 130.544 102.946 131.031C102.317 131.514 101.476 131.756 100.423 131.756C99.7399 131.756 99.1018 131.626 98.5094 131.366C97.917 131.102 97.4589 130.742 97.1354 130.286C96.8164 129.83 96.6569 129.313 96.6569 128.734H97.9762C97.9762 129.336 98.1972 129.812 98.6393 130.163C99.0859 130.509 99.6806 130.683 100.423 130.683C101.116 130.683 101.647 130.541 102.016 130.259C102.385 129.976 102.57 129.591 102.57 129.104C102.57 128.616 102.399 128.24 102.057 127.976C101.715 127.707 101.096 127.442 100.198 127.183Z" fill="#3D3B3C"/>
<defs>
<linearGradient id="paint0_linear" x1="81.2889" y1="60.8938" x2="81.2889" y2="43.6904" gradientUnits="userSpaceOnUse">
<stop offset="0.387" stop-color="#D1D3D4" stop-opacity="0"/>
<stop offset="1" stop-color="#D1D3D4"/>
</linearGradient>
<linearGradient id="paint1_linear" x1="102.784" y1="52.3132" x2="102.784" y2="34.4309" gradientUnits="userSpaceOnUse">
<stop offset="0.387" stop-color="#D1D3D4" stop-opacity="0"/>
<stop offset="1" stop-color="#D1D3D4"/>
</linearGradient>
<linearGradient id="paint2_linear" x1="70.9424" y1="68.5668" x2="112.261" y2="68.5668" gradientUnits="userSpaceOnUse">
<stop stop-color="#E8E7E5"/>
<stop offset="1" stop-color="white"/>
</linearGradient>
<linearGradient id="paint3_linear" x1="69.0411" y1="38.8084" x2="113.9" y2="38.8084" gradientUnits="userSpaceOnUse">
<stop stop-color="#E8E7E5"/>
<stop offset="1" stop-color="white"/>
</linearGradient>
</defs>
</svg>
