<svg width="185" height="213" viewBox="0 0 185 213" fill="none" xmlns="http://www.w3.org/2000/svg">
<path d="M21.0853 189.213C21.3851 188.293 22.687 188.293 22.9869 189.213L24.738 194.587C24.8721 194.999 25.2559 195.277 25.6888 195.277H31.3495C32.3189 195.277 32.7213 196.518 31.9363 197.087L27.3614 200.402C27.0099 200.657 26.8629 201.109 26.9973 201.521L28.7459 206.888C29.0459 207.809 27.9926 208.576 27.2084 208.008L22.6228 204.685C22.2728 204.432 21.7994 204.432 21.4494 204.685L16.8638 208.008C16.0796 208.576 15.0263 207.809 15.3263 206.888L17.0749 201.521C17.2093 201.109 17.0622 200.657 16.7108 200.402L12.1359 197.087C11.3509 196.518 11.7532 195.277 12.7226 195.277H18.3834C18.8163 195.277 19.2001 194.999 19.3342 194.587L21.0853 189.213Z" fill="#120D0E"/>
<path d="M56.1823 189.213C56.4822 188.293 57.7841 188.293 58.0839 189.213L59.835 194.587C59.9691 194.999 60.3529 195.277 60.7858 195.277H66.4466C67.416 195.277 67.8183 196.518 67.0333 197.087L62.4584 200.402C62.107 200.657 61.9599 201.109 62.0943 201.521L63.8429 206.888C64.1429 207.809 63.0897 208.576 62.3054 208.008L57.7199 204.685C57.3698 204.432 56.8965 204.432 56.5464 204.685L51.9609 208.008C51.1766 208.576 50.1233 207.809 50.4233 206.888L52.1719 201.521C52.3064 201.109 52.1593 200.657 51.8078 200.402L47.233 197.087C46.4479 196.518 46.8503 195.277 47.8197 195.277H53.4804C53.9134 195.277 54.2971 194.999 54.4312 194.587L56.1823 189.213Z" fill="#120D0E"/>
<path d="M91.2794 189.213C91.5792 188.293 92.8811 188.293 93.181 189.213L94.9321 194.587C95.0662 194.999 95.45 195.277 95.8829 195.277H101.544C102.513 195.277 102.915 196.518 102.13 197.087L97.5555 200.402C97.204 200.657 97.0569 201.109 97.1914 201.521L98.94 206.888C99.24 207.809 98.1867 208.576 97.4024 208.008L92.8169 204.685C92.4669 204.432 91.9935 204.432 91.6435 204.685L87.0579 208.008C86.2737 208.576 85.2204 207.809 85.5204 206.888L87.269 201.521C87.4034 201.109 87.2563 200.657 86.9049 200.402L82.33 197.087C81.545 196.518 81.9473 195.277 82.9167 195.277H88.5775C89.0104 195.277 89.3942 194.999 89.5283 194.587L91.2794 189.213Z" fill="#120D0E"/>
<path d="M126.377 189.213C126.676 188.293 127.978 188.293 128.278 189.213L130.029 194.587C130.163 194.999 130.547 195.277 130.98 195.277H136.641C137.61 195.277 138.013 196.518 137.228 197.087L132.653 200.402C132.301 200.657 132.154 201.109 132.289 201.521L134.037 206.888C134.337 207.809 133.284 208.576 132.5 208.008L127.914 204.685C127.564 204.432 127.091 204.432 126.741 204.685L122.155 208.008C121.371 208.576 120.318 207.809 120.618 206.888L122.366 201.521C122.501 201.109 122.354 200.657 122.002 200.402L117.427 197.087C116.642 196.518 117.044 195.277 118.014 195.277H123.675C124.108 195.277 124.491 194.999 124.625 194.587L126.377 189.213Z" fill="#BEBEBE"/>
<path d="M161.474 189.213C161.774 188.293 163.075 188.293 163.375 189.213L165.126 194.587C165.261 194.999 165.644 195.277 166.077 195.277H171.738C172.707 195.277 173.11 196.518 172.325 197.087L167.75 200.402C167.398 200.657 167.251 201.109 167.386 201.521L169.134 206.888C169.434 207.809 168.381 208.576 167.597 208.008L163.011 204.685C162.661 204.432 162.188 204.432 161.838 204.685L157.252 208.008C156.468 208.576 155.415 207.809 155.715 206.888L157.463 201.521C157.598 201.109 157.451 200.657 157.099 200.402L152.524 197.087C151.739 196.518 152.142 195.277 153.111 195.277H158.772C159.205 195.277 159.588 194.999 159.723 194.587L161.474 189.213Z" fill="#BEBEBE"/>
<g clip-path="url(#clip0)">
<path d="M104.711 29.3249C102.088 29.3249 100.134 30.6042 100.134 33.6834C100.134 36.0032 101.421 37.614 104.57 37.614C107.238 37.614 109.051 36.0521 109.051 33.587C109.051 30.7937 107.429 29.3249 104.711 29.3249ZM99.4658 51.0665C98.8447 51.823 98.226 52.6275 98.226 53.5758C98.226 55.4692 100.657 56.039 103.996 56.039C106.762 56.039 110.53 55.8463 110.53 53.2923C110.53 51.7741 108.717 51.6805 106.427 51.5381L99.4658 51.0665ZM113.581 29.4678C114.438 30.5572 115.346 32.0735 115.346 34.2518C115.346 39.5088 111.197 42.587 105.189 42.587C103.662 42.587 102.279 42.398 101.421 42.1615L99.8469 44.6708L104.52 44.9548C112.771 45.4771 117.633 45.7145 117.633 52.0111C117.633 57.4589 112.818 60.5357 104.52 60.5357C95.8888 60.5357 92.5981 58.357 92.5981 54.6158C92.5981 52.4845 93.5521 51.35 95.2213 49.7844C93.6472 49.1237 93.1231 47.9403 93.1231 46.6605C93.1231 45.6177 93.6472 44.6712 94.5069 43.7704C95.3647 42.8719 96.3182 41.9711 97.4628 40.9292C95.1266 39.7923 93.3613 37.3295 93.3613 33.824C93.3613 28.3784 96.9861 24.6382 104.281 24.6382C106.332 24.6382 107.572 24.8254 108.669 25.1117H117.969V29.1359L113.581 29.4678ZM126.359 20.8612C123.64 20.8612 122.067 19.297 122.067 16.5963C122.067 13.8994 123.64 12.4297 126.359 12.4297C129.125 12.4297 130.699 13.8994 130.699 16.5963C130.699 19.297 129.125 20.8612 126.359 20.8612ZM120.206 49.3235V45.5837L122.639 45.2532C123.307 45.1577 123.402 45.0162 123.402 44.3044V30.3798C123.402 29.8603 123.259 29.527 122.781 29.3864L120.206 28.4855L120.73 24.6503H130.603V44.3044C130.603 45.0632 130.649 45.1577 131.366 45.2536L133.798 45.5842V49.3235H120.206ZM152.656 47.4873C150.605 48.4813 147.601 49.3812 144.882 49.3812C139.207 49.3812 137.062 47.1102 137.062 41.7555V29.3482C137.062 29.0642 137.062 28.8747 136.679 28.8747H133.342V24.6582C137.539 24.1834 139.207 22.0996 139.732 16.9371H144.263V23.6643C144.263 23.9948 144.263 24.1378 144.645 24.1378H151.368V28.8738H144.263V40.1927C144.263 42.9869 144.931 44.0753 147.505 44.0753C148.842 44.0753 150.223 43.7448 151.367 43.3184L152.656 47.4869" fill="#2F2707"/>
<path d="M81.9979 35.0586L60.1935 13.4046C59.8949 13.1079 59.5403 12.8726 59.1501 12.712C58.7599 12.5515 58.3417 12.4688 57.9193 12.4688C57.497 12.4688 57.0788 12.5515 56.6886 12.712C56.2983 12.8726 55.9438 13.1079 55.6452 13.4046L51.1175 17.9018L56.8611 23.6057C57.5363 23.3776 58.2622 23.3419 58.9567 23.5026C59.6512 23.6633 60.2865 24.014 60.7907 24.5149C61.2975 25.0189 61.6514 25.6544 61.8119 26.3487C61.9724 27.0431 61.9329 27.7682 61.6982 28.4413L67.2327 33.939C68.5719 33.4809 70.1174 33.7775 71.1866 34.8412C71.5421 35.1941 71.8241 35.613 72.0165 36.0741C72.2089 36.5352 72.3079 37.0295 72.3079 37.5286C72.3079 38.0278 72.2089 38.522 72.0165 38.9831C71.8241 39.4442 71.5421 39.8632 71.1866 40.216C70.5612 40.8377 69.7381 41.225 68.8576 41.3119C67.977 41.3987 67.0934 41.1798 66.357 40.6924C65.6207 40.205 65.0771 39.4792 64.819 38.6386C64.5608 37.798 64.6039 36.8945 64.941 36.0819L59.7791 30.9553L59.7786 44.4469C60.1528 44.6307 60.4946 44.8734 60.7907 45.1657C61.1461 45.5187 61.4281 45.9377 61.6205 46.3989C61.8128 46.8601 61.9119 47.3544 61.9119 47.8536C61.9119 48.3528 61.8128 48.8471 61.6205 49.3083C61.4281 49.7694 61.1461 50.1885 60.7907 50.5414C59.2954 52.0265 56.8719 52.0265 55.379 50.5414C54.9329 50.0988 54.6039 49.5535 54.4213 48.9541C54.2386 48.3547 54.2078 47.7198 54.3318 47.1058C54.4557 46.4918 54.7305 45.9177 55.1317 45.4346C55.5329 44.9514 56.0481 44.5743 56.6315 44.3366V30.7193C56.1622 30.5289 55.7362 30.2468 55.379 29.8897C54.2465 28.7663 53.9741 27.1159 54.5544 25.7346L48.8929 20.1108L33.9425 34.9581C33.6438 35.2548 33.4068 35.607 33.2451 35.9947C33.0835 36.3823 33.0002 36.7978 33.0002 37.2174C33.0002 37.637 33.0835 38.0525 33.2451 38.4401C33.4068 38.8278 33.6438 39.18 33.9425 39.4767L55.7469 61.1313C56.3501 61.7302 57.1681 62.0666 58.0211 62.0666C58.874 62.0666 59.692 61.7302 60.2952 61.1313L81.9979 39.5777C82.601 38.9783 82.9398 38.1656 82.9398 37.3182C82.9398 36.4708 82.601 35.658 81.9979 35.0586Z" fill="#DE4C36"/>
</g>
<path d="M91.2906 130.313C90.9534 130.797 90.4817 131.159 89.8756 131.4C89.274 131.637 88.5722 131.756 87.7701 131.756C86.9589 131.756 86.2389 131.567 85.61 131.188C84.9811 130.806 84.4934 130.263 84.1471 129.562C83.8053 128.86 83.6298 128.046 83.6207 127.121V126.253C83.6207 124.754 83.9694 123.591 84.6666 122.767C85.3684 121.942 86.3528 121.529 87.6198 121.529C88.6588 121.529 89.4951 121.796 90.1285 122.329C90.762 122.858 91.1494 123.61 91.2906 124.585H89.9781C89.7321 123.268 88.9482 122.609 87.6266 122.609C86.747 122.609 86.0794 122.919 85.6237 123.539C85.1725 124.154 84.9446 125.048 84.9401 126.219V127.032C84.9401 128.149 85.1953 129.037 85.7057 129.698C86.2161 130.354 86.9065 130.683 87.777 130.683C88.2692 130.683 88.6998 130.628 89.069 130.519C89.4381 130.409 89.7434 130.225 89.985 129.965V127.729H87.6813V126.663H91.2906V130.313ZM94.6608 131.619H93.3961V124.223H94.6608V131.619ZM93.2936 122.261C93.2936 122.056 93.3551 121.882 93.4781 121.741C93.6058 121.6 93.7926 121.529 94.0387 121.529C94.2848 121.529 94.4716 121.6 94.5992 121.741C94.7268 121.882 94.7906 122.056 94.7906 122.261C94.7906 122.466 94.7268 122.637 94.5992 122.773C94.4716 122.91 94.2848 122.979 94.0387 122.979C93.7926 122.979 93.6058 122.91 93.4781 122.773C93.3551 122.637 93.2936 122.466 93.2936 122.261ZM98.4069 122.432V124.223H99.7877V125.2H98.4069V129.787C98.4069 130.083 98.4684 130.307 98.5914 130.457C98.7145 130.603 98.9241 130.676 99.2203 130.676C99.3662 130.676 99.5667 130.648 99.8219 130.594V131.619C99.4892 131.71 99.1656 131.756 98.8512 131.756C98.2861 131.756 97.86 131.585 97.5729 131.243C97.2858 130.901 97.1422 130.416 97.1422 129.787V125.2H95.7955V124.223H97.1422V122.432H98.4069Z" fill="#3D3B3C"/>
<defs>
<clipPath id="clip0">
<rect width="120" height="50.2941" fill="white" transform="translate(33 12)"/>
</clipPath>
</defs>
</svg>
