<svg width="185" height="215" viewBox="0 0 185 215" fill="none" xmlns="http://www.w3.org/2000/svg">
<path d="M21.0853 191.213C21.3851 190.293 22.687 190.293 22.9869 191.213L24.738 196.587C24.8721 196.999 25.2559 197.277 25.6888 197.277H31.3495C32.3189 197.277 32.7213 198.518 31.9363 199.087L27.3614 202.402C27.0099 202.657 26.8629 203.109 26.9973 203.521L28.7459 208.888C29.0459 209.809 27.9926 210.576 27.2084 210.008L22.6228 206.685C22.2728 206.432 21.7994 206.432 21.4494 206.685L16.8638 210.008C16.0796 210.576 15.0263 209.809 15.3263 208.888L17.0749 203.521C17.2093 203.109 17.0622 202.657 16.7108 202.402L12.1359 199.087C11.3509 198.518 11.7532 197.277 12.7226 197.277H18.3834C18.8163 197.277 19.2001 196.999 19.3342 196.587L21.0853 191.213Z" fill="#120D0E"/>
<path d="M56.1823 191.213C56.4822 190.293 57.7841 190.293 58.0839 191.213L59.835 196.587C59.9691 196.999 60.3529 197.277 60.7858 197.277H66.4466C67.416 197.277 67.8183 198.518 67.0333 199.087L62.4584 202.402C62.107 202.657 61.9599 203.109 62.0943 203.521L63.8429 208.888C64.1429 209.809 63.0897 210.576 62.3054 210.008L57.7199 206.685C57.3698 206.432 56.8965 206.432 56.5464 206.685L51.9609 210.008C51.1766 210.576 50.1233 209.809 50.4233 208.888L52.1719 203.521C52.3064 203.109 52.1593 202.657 51.8078 202.402L47.233 199.087C46.4479 198.518 46.8503 197.277 47.8197 197.277H53.4804C53.9134 197.277 54.2971 196.999 54.4312 196.587L56.1823 191.213Z" fill="#120D0E"/>
<path d="M91.2794 191.213C91.5792 190.293 92.8811 190.293 93.181 191.213L94.9321 196.587C95.0662 196.999 95.45 197.277 95.8829 197.277H101.544C102.513 197.277 102.915 198.518 102.13 199.087L97.5555 202.402C97.204 202.657 97.0569 203.109 97.1914 203.521L98.94 208.888C99.24 209.809 98.1867 210.576 97.4024 210.008L92.8169 206.685C92.4669 206.432 91.9935 206.432 91.6435 206.685L87.0579 210.008C86.2737 210.576 85.2204 209.809 85.5204 208.888L87.269 203.521C87.4034 203.109 87.2563 202.657 86.9049 202.402L82.33 199.087C81.545 198.518 81.9473 197.277 82.9167 197.277H88.5775C89.0104 197.277 89.3942 196.999 89.5283 196.587L91.2794 191.213Z" fill="#120D0E"/>
<path d="M126.377 191.213C126.676 190.293 127.978 190.293 128.278 191.213L130.029 196.587C130.163 196.999 130.547 197.277 130.98 197.277H136.641C137.61 197.277 138.013 198.518 137.228 199.087L132.653 202.402C132.301 202.657 132.154 203.109 132.289 203.521L134.037 208.888C134.337 209.809 133.284 210.576 132.5 210.008L127.914 206.685C127.564 206.432 127.091 206.432 126.741 206.685L122.155 210.008C121.371 210.576 120.318 209.809 120.618 208.888L122.366 203.521C122.501 203.109 122.354 202.657 122.002 202.402L117.427 199.087C116.642 198.518 117.044 197.277 118.014 197.277H123.675C124.108 197.277 124.491 196.999 124.625 196.587L126.377 191.213Z" fill="#120D0E"/>
<path d="M161.474 191.213C161.774 190.293 163.075 190.293 163.375 191.213L165.126 196.587C165.261 196.999 165.644 197.277 166.077 197.277H171.738C172.707 197.277 173.11 198.518 172.325 199.087L167.75 202.402C167.398 202.657 167.251 203.109 167.386 203.521L169.134 208.888C169.434 209.809 168.381 210.576 167.597 210.008L163.011 206.685C162.661 206.432 162.188 206.432 161.838 206.685L157.252 210.008C156.468 210.576 155.415 209.809 155.715 208.888L157.463 203.521C157.598 203.109 157.451 202.657 157.099 202.402L152.524 199.087C151.739 198.518 152.142 197.277 153.111 197.277H158.772C159.205 197.277 159.588 196.999 159.723 196.587L161.474 191.213Z" fill="#BEBEBE"/>
<g clip-path="url(#clip0)">
<path d="M93 0C65.3745 0 43 22.3729 43 49.9964C43 73.4926 59.1234 92.9934 80.8766 98.4909C80.6255 97.8654 80.5021 96.9888 80.5021 96.1166V87.615H74.2511C70.8766 87.615 67.7489 86.1173 66.3745 83.3643C64.7489 80.3645 64.4979 75.7393 60.3745 72.8629C59.1234 71.863 60.1234 70.863 61.4979 70.9864C64.1234 71.7353 66.2468 73.4884 68.2468 76.1095C70.2468 78.7348 71.1234 79.3603 74.8723 79.3603C76.6213 79.3603 79.3702 79.2369 81.8723 78.8582C83.2468 75.3563 85.6213 72.2332 88.4979 70.7354C71.7489 68.7355 63.7489 60.4851 63.7489 49.2348C63.7489 44.3585 65.8723 39.7333 69.3745 35.7336C68.2511 31.8573 66.7489 23.8579 69.8766 20.7347C77.3787 20.7347 81.8766 25.6109 83 26.8577C86.7489 25.6067 90.8766 24.8578 95.1234 24.8578C99.4979 24.8578 103.498 25.6067 107.247 26.8577C108.37 25.6067 112.872 20.7347 120.37 20.7347C123.37 23.7345 121.996 31.8573 120.745 35.7336C124.247 39.6099 126.247 44.3585 126.247 49.2348C126.247 60.4851 118.37 68.7355 101.749 70.4843C106.374 72.8586 109.626 79.6071 109.626 84.6067V95.9932C109.626 96.3676 109.502 96.742 109.502 97.1165C129 90.368 143 71.8715 143 49.9964C143 22.3729 120.626 0 93 0Z" fill="black"/>
</g>
<path d="M80.1422 132.313C79.805 132.797 79.3333 133.159 78.7272 133.4C78.1256 133.637 77.4238 133.756 76.6217 133.756C75.8105 133.756 75.0905 133.567 74.4615 133.188C73.8326 132.806 73.345 132.263 72.9987 131.562C72.6569 130.86 72.4814 130.046 72.4723 129.121V128.253C72.4723 126.754 72.8209 125.591 73.5182 124.767C74.22 123.942 75.2044 123.529 76.4713 123.529C77.5104 123.529 78.3466 123.796 78.9801 124.329C79.6136 124.858 80.0009 125.61 80.1422 126.585H78.8297C78.5836 125.268 77.7998 124.609 76.4781 124.609C75.5986 124.609 74.9309 124.919 74.4752 125.539C74.024 126.154 73.7962 127.048 73.7916 128.219V129.032C73.7916 130.149 74.0468 131.037 74.5573 131.698C75.0677 132.354 75.7581 132.683 76.6285 132.683C77.1207 132.683 77.5514 132.628 77.9205 132.519C78.2897 132.409 78.595 132.225 78.8365 131.965V129.729H76.5328V128.663H80.1422V132.313ZM83.5123 133.619H82.2477V126.223H83.5123V133.619ZM82.1451 124.261C82.1451 124.056 82.2067 123.882 82.3297 123.741C82.4573 123.6 82.6442 123.529 82.8903 123.529C83.1364 123.529 83.3232 123.6 83.4508 123.741C83.5784 123.882 83.6422 124.056 83.6422 124.261C83.6422 124.466 83.5784 124.637 83.4508 124.773C83.3232 124.91 83.1364 124.979 82.8903 124.979C82.6442 124.979 82.4573 124.91 82.3297 124.773C82.2067 124.637 82.1451 124.466 82.1451 124.261ZM87.2584 124.432V126.223H88.6393V127.2H87.2584V131.787C87.2584 132.083 87.3199 132.307 87.443 132.457C87.566 132.603 87.7757 132.676 88.0719 132.676C88.2177 132.676 88.4183 132.648 88.6735 132.594V133.619C88.3408 133.71 88.0172 133.756 87.7028 133.756C87.1377 133.756 86.7115 133.585 86.4244 133.243C86.1373 132.901 85.9938 132.416 85.9938 131.787V127.2H84.6471V126.223H85.9938V124.432H87.2584ZM91.3873 127.118C91.9479 126.43 92.677 126.086 93.5748 126.086C95.138 126.086 95.9264 126.968 95.9401 128.731V133.619H94.6754V128.725C94.6709 128.191 94.5478 127.797 94.3063 127.542C94.0693 127.287 93.6979 127.159 93.192 127.159C92.7819 127.159 92.4218 127.269 92.1119 127.487C91.802 127.706 91.5605 127.993 91.3873 128.349V133.619H90.1227V123.119H91.3873V127.118ZM102.4 132.888C101.908 133.466 101.186 133.756 100.233 133.756C99.4446 133.756 98.8431 133.528 98.4283 133.072C98.0182 132.612 97.8108 131.933 97.8063 131.035V126.223H99.0709V131.001C99.0709 132.122 99.5267 132.683 100.438 132.683C101.404 132.683 102.047 132.323 102.366 131.603V126.223H103.63V133.619H102.427L102.4 132.888ZM111.82 130.003C111.82 131.133 111.56 132.042 111.041 132.73C110.521 133.414 109.824 133.756 108.949 133.756C108.015 133.756 107.292 133.425 106.782 132.765L106.72 133.619H105.558V123.119H106.823V127.036C107.333 126.403 108.037 126.086 108.935 126.086C109.833 126.086 110.537 126.425 111.047 127.104C111.562 127.784 111.82 128.713 111.82 129.894V130.003ZM110.555 129.859C110.555 128.998 110.389 128.333 110.056 127.863C109.724 127.394 109.245 127.159 108.621 127.159C107.787 127.159 107.187 127.547 106.823 128.321V131.521C107.21 132.295 107.814 132.683 108.634 132.683C109.241 132.683 109.712 132.448 110.049 131.979C110.387 131.509 110.555 130.803 110.555 129.859Z" fill="#3D3B3C"/>
<defs>
<clipPath id="clip0">
<rect width="100" height="98.4951" fill="white" transform="translate(43)"/>
</clipPath>
</defs>
</svg>
