<svg width="185" height="213" viewBox="0 0 185 213" fill="none" xmlns="http://www.w3.org/2000/svg">
<g clip-path="url(#clip0)">
<path d="M63.0241 91.9682L56.5767 19.6524L127.423 19.6524L120.969 91.9569L91.9565 100L63.0241 91.9682Z" fill="#E44D26"/>
<path d="M92 93.8521L115.443 87.3527L120.959 25.5652H92V93.8521Z" fill="#F16529"/>
<path d="M91.9998 52.3861H80.2635L79.453 43.3038H91.9998V34.4345H91.9692H69.76L69.9723 36.814L72.1522 61.2552H91.9998V52.3861Z" fill="#EBEBEB"/>
<path d="M92 75.4205L91.9611 75.4309L82.0834 72.7637L81.4519 65.6901H76.6521H72.5486L73.7912 79.616L91.9591 84.6596L92 84.6483V75.4205Z" fill="#EBEBEB"/>
<path d="M63.1682 0L67.6754 0V4.45312L71.7985 4.45313V0L76.3059 0V13.4852H71.7987V8.96953H67.6756V13.4852H63.1684V0L63.1682 0Z" fill="#120D0E"/>
<path d="M82.2331 4.47187H78.2651V0L90.7104 0V4.47187H86.7407V13.4852H82.2333V4.47187H82.2331Z" fill="#120D0E"/>
<path d="M92.6858 0L97.3856 0L100.277 4.73828L103.165 0L107.866 0V13.4852H103.378V6.80117L100.277 11.5959H100.199L97.096 6.80117V13.4852H92.6858V0Z" fill="#120D0E"/>
<path d="M110.109 0L114.618 0V9.02773H120.956V13.4852H110.109V0Z" fill="#120D0E"/>
<path d="M91.9695 52.3861V61.2552H102.891L101.861 72.758L91.9695 75.4279V84.6552L110.152 79.616L110.285 78.1175L112.369 54.7677L112.586 52.3861H110.196H91.9695Z" fill="white"/>
<path d="M91.9695 34.4345V39.9431V43.2822V43.3038H113.364H113.393L113.571 41.3103L113.975 36.814L114.187 34.4345H91.9695Z" fill="white"/>
</g>
<path d="M81.4126 131.619H80.0933V127.019H75.0757V131.619H73.7632V121.666H75.0757V125.945H80.0933V121.666H81.4126V131.619ZM90.4155 122.746H87.2163V131.619H85.9106V122.746H82.7183V121.666H90.4155V122.746ZM93.5874 121.666L96.8413 129.787L100.095 121.666H101.797V131.619H100.485V127.743L100.608 123.56L97.3403 131.619H96.3354L93.0747 123.58L93.2046 127.743V131.619H91.8921V121.666H93.5874ZM105.434 130.546H110.151V131.619H104.115V121.666H105.434V130.546Z" fill="#3D3B3C"/>
<path d="M21.0853 189.213C21.3851 188.293 22.687 188.293 22.9869 189.213L24.738 194.587C24.8721 194.999 25.2559 195.277 25.6888 195.277H31.3495C32.3189 195.277 32.7213 196.518 31.9363 197.087L27.3614 200.402C27.0099 200.657 26.8629 201.109 26.9973 201.521L28.7459 206.888C29.0459 207.809 27.9926 208.576 27.2084 208.008L22.6228 204.685C22.2728 204.432 21.7994 204.432 21.4494 204.685L16.8638 208.008C16.0796 208.576 15.0263 207.809 15.3263 206.888L17.0749 201.521C17.2093 201.109 17.0622 200.657 16.7108 200.402L12.1359 197.087C11.3509 196.518 11.7532 195.277 12.7226 195.277H18.3834C18.8163 195.277 19.2001 194.999 19.3342 194.587L21.0853 189.213Z" fill="#120D0E"/>
<path d="M56.1822 189.213C56.4821 188.293 57.784 188.293 58.0838 189.213L59.8349 194.587C59.969 194.999 60.3528 195.277 60.7857 195.277H66.4465C67.4159 195.277 67.8182 196.518 67.0332 197.087L62.4583 200.402C62.1069 200.657 61.9598 201.109 62.0942 201.521L63.8428 206.888C64.1428 207.809 63.0895 208.576 62.3053 208.008L57.7197 204.685C57.3697 204.432 56.8963 204.432 56.5463 204.685L51.9607 208.008C51.1765 208.576 50.1232 207.809 50.4232 206.888L52.1718 201.521C52.3062 201.109 52.1592 200.657 51.8077 200.402L47.2328 197.087C46.4478 196.518 46.8502 195.277 47.8196 195.277H53.4803C53.9132 195.277 54.297 194.999 54.4311 194.587L56.1822 189.213Z" fill="#120D0E"/>
<path d="M91.2794 189.213C91.5792 188.293 92.8811 188.293 93.181 189.213L94.9321 194.587C95.0662 194.999 95.45 195.277 95.8829 195.277H101.544C102.513 195.277 102.915 196.518 102.13 197.087L97.5555 200.402C97.204 200.657 97.0569 201.109 97.1914 201.521L98.94 206.888C99.24 207.809 98.1867 208.576 97.4024 208.008L92.8169 204.685C92.4669 204.432 91.9935 204.432 91.6435 204.685L87.0579 208.008C86.2737 208.576 85.2204 207.809 85.5204 206.888L87.269 201.521C87.4034 201.109 87.2563 200.657 86.9049 200.402L82.33 197.087C81.545 196.518 81.9473 195.277 82.9167 195.277H88.5775C89.0104 195.277 89.3942 194.999 89.5283 194.587L91.2794 189.213Z" fill="#120D0E"/>
<path d="M126.377 189.213C126.676 188.293 127.978 188.293 128.278 189.213L130.029 194.587C130.163 194.999 130.547 195.277 130.98 195.277H136.641C137.61 195.277 138.013 196.518 137.228 197.087L132.653 200.402C132.301 200.657 132.154 201.109 132.289 201.521L134.037 206.888C134.337 207.809 133.284 208.576 132.5 208.008L127.914 204.685C127.564 204.432 127.091 204.432 126.741 204.685L122.155 208.008C121.371 208.576 120.318 207.809 120.618 206.888L122.366 201.521C122.501 201.109 122.354 200.657 122.002 200.402L117.427 197.087C116.642 196.518 117.044 195.277 118.014 195.277H123.675C124.108 195.277 124.491 194.999 124.625 194.587L126.377 189.213Z" fill="#120D0E"/>
<path d="M161.474 189.213C161.774 188.293 163.075 188.293 163.375 189.213L165.126 194.587C165.261 194.999 165.644 195.277 166.077 195.277H171.738C172.707 195.277 173.11 196.518 172.325 197.087L167.75 200.402C167.398 200.657 167.251 201.109 167.386 201.521L169.134 206.888C169.434 207.809 168.381 208.576 167.597 208.008L163.011 204.685C162.661 204.432 162.188 204.432 161.838 204.685L157.252 208.008C156.468 208.576 155.415 207.809 155.715 206.888L157.463 201.521C157.598 201.109 157.451 200.657 157.099 200.402L152.524 197.087C151.739 196.518 152.142 195.277 153.111 195.277H158.772C159.205 195.277 159.588 194.999 159.723 194.587L161.474 189.213Z" fill="#120D0E"/>
<defs>
<clipPath id="clip0">
<rect width="100" height="100" fill="white" transform="translate(42)"/>
</clipPath>
</defs>
</svg>
