<svg width="185" height="215" viewBox="0 0 185 215" fill="none" xmlns="http://www.w3.org/2000/svg">
<path d="M21.0853 191.213C21.3851 190.293 22.687 190.293 22.9869 191.213L24.738 196.587C24.8721 196.999 25.2559 197.277 25.6888 197.277H31.3495C32.3189 197.277 32.7213 198.518 31.9363 199.087L27.3614 202.402C27.0099 202.657 26.8629 203.109 26.9973 203.521L28.7459 208.888C29.0459 209.809 27.9926 210.576 27.2084 210.008L22.6228 206.685C22.2728 206.432 21.7994 206.432 21.4494 206.685L16.8638 210.008C16.0796 210.576 15.0263 209.809 15.3263 208.888L17.0749 203.521C17.2093 203.109 17.0622 202.657 16.7108 202.402L12.1359 199.087C11.3509 198.518 11.7532 197.277 12.7226 197.277H18.3834C18.8163 197.277 19.2001 196.999 19.3342 196.587L21.0853 191.213Z" fill="#120D0E"/>
<path d="M56.1823 191.213C56.4822 190.293 57.7841 190.293 58.0839 191.213L59.835 196.587C59.9691 196.999 60.3529 197.277 60.7858 197.277H66.4466C67.416 197.277 67.8183 198.518 67.0333 199.087L62.4584 202.402C62.107 202.657 61.9599 203.109 62.0943 203.521L63.8429 208.888C64.1429 209.809 63.0897 210.576 62.3054 210.008L57.7199 206.685C57.3698 206.432 56.8965 206.432 56.5464 206.685L51.9609 210.008C51.1766 210.576 50.1233 209.809 50.4233 208.888L52.1719 203.521C52.3064 203.109 52.1593 202.657 51.8078 202.402L47.233 199.087C46.4479 198.518 46.8503 197.277 47.8197 197.277H53.4804C53.9134 197.277 54.2971 196.999 54.4312 196.587L56.1823 191.213Z" fill="#120D0E"/>
<path d="M91.2794 191.213C91.5792 190.293 92.8811 190.293 93.181 191.213L94.9321 196.587C95.0662 196.999 95.45 197.277 95.8829 197.277H101.544C102.513 197.277 102.915 198.518 102.13 199.087L97.5555 202.402C97.204 202.657 97.0569 203.109 97.1914 203.521L98.94 208.888C99.24 209.809 98.1867 210.576 97.4024 210.008L92.8169 206.685C92.4669 206.432 91.9935 206.432 91.6435 206.685L87.0579 210.008C86.2737 210.576 85.2204 209.809 85.5204 208.888L87.269 203.521C87.4034 203.109 87.2563 202.657 86.9049 202.402L82.33 199.087C81.545 198.518 81.9473 197.277 82.9167 197.277H88.5775C89.0104 197.277 89.3942 196.999 89.5283 196.587L91.2794 191.213Z" fill="#120D0E"/>
<path d="M126.377 191.213C126.676 190.293 127.978 190.293 128.278 191.213L130.029 196.587C130.163 196.999 130.547 197.277 130.98 197.277H136.641C137.61 197.277 138.013 198.518 137.228 199.087L132.653 202.402C132.301 202.657 132.154 203.109 132.289 203.521L134.037 208.888C134.337 209.809 133.284 210.576 132.5 210.008L127.914 206.685C127.564 206.432 127.091 206.432 126.741 206.685L122.155 210.008C121.371 210.576 120.318 209.809 120.618 208.888L122.366 203.521C122.501 203.109 122.354 202.657 122.002 202.402L117.427 199.087C116.642 198.518 117.044 197.277 118.014 197.277H123.675C124.108 197.277 124.491 196.999 124.625 196.587L126.377 191.213Z" fill="#BEBEBE"/>
<path d="M161.474 191.213C161.774 190.293 163.075 190.293 163.375 191.213L165.126 196.587C165.261 196.999 165.644 197.277 166.077 197.277H171.738C172.707 197.277 173.11 198.518 172.325 199.087L167.75 202.402C167.398 202.657 167.251 203.109 167.386 203.521L169.134 208.888C169.434 209.809 168.381 210.576 167.597 210.008L163.011 206.685C162.661 206.432 162.188 206.432 161.838 206.685L157.252 210.008C156.468 210.576 155.415 209.809 155.715 208.888L157.463 203.521C157.598 203.109 157.451 202.657 157.099 202.402L152.524 199.087C151.739 198.518 152.142 197.277 153.111 197.277H158.772C159.205 197.277 159.588 196.999 159.723 196.587L161.474 191.213Z" fill="#BEBEBE"/>
<g opacity="0.78">
<path d="M54 0H132V78H54V0Z" fill="#F7DF1E"/>
<path d="M74.5091 65.1824L80.4779 61.57C81.6296 63.6118 82.6772 65.3393 85.1899 65.3393C87.5985 65.3393 89.1173 64.3972 89.1173 60.7325V35.8096H96.4472V60.8361C96.4472 68.428 91.9969 71.8837 85.504 71.8837C79.6403 71.8837 76.2367 68.8469 74.5088 65.1818L74.5091 65.1824ZM100.429 64.3969L106.397 60.9415C107.968 63.5072 110.01 65.392 113.622 65.392C116.66 65.392 118.596 63.8735 118.596 61.7791C118.596 59.266 116.607 58.3757 113.256 56.9102L111.424 56.1241C106.135 53.8733 102.627 51.0458 102.627 45.077C102.627 39.5792 106.816 35.3904 113.361 35.3904C118.021 35.3904 121.372 37.0138 123.78 41.2547L118.073 44.9201C116.816 42.6688 115.455 41.7788 113.361 41.7788C111.214 41.7788 109.853 43.1401 109.853 44.9201C109.853 47.119 111.214 48.0096 114.355 49.371L116.188 50.1561C122.418 52.8267 125.926 55.5491 125.926 61.6746C125.926 68.2723 120.743 71.8846 113.779 71.8846C106.973 71.8846 102.575 68.6385 100.428 64.3972" fill="black"/>
</g>
<path d="M64.0016 123.666H65.3209V130.714C65.3209 131.666 65.0338 132.411 64.4596 132.949C63.8899 133.487 63.1289 133.756 62.1764 133.756C61.1875 133.756 60.4173 133.503 59.8658 132.997C59.3144 132.491 59.0387 131.783 59.0387 130.871H60.3512C60.3512 131.441 60.5061 131.885 60.816 132.204C61.1305 132.523 61.5839 132.683 62.1764 132.683C62.7187 132.683 63.1562 132.512 63.4889 132.17C63.8261 131.828 63.997 131.35 64.0016 130.734V123.666ZM71.9244 133.619C71.8515 133.473 71.7923 133.214 71.7467 132.84C71.1588 133.451 70.457 133.756 69.6412 133.756C68.9121 133.756 68.3128 133.551 67.8434 133.141C67.3785 132.726 67.1461 132.202 67.1461 131.568C67.1461 130.798 67.4378 130.201 68.0211 129.777C68.609 129.349 69.4339 129.135 70.4957 129.135H71.7262V128.554C71.7262 128.112 71.594 127.761 71.3297 127.501C71.0654 127.237 70.6757 127.104 70.1608 127.104C69.7096 127.104 69.3313 127.218 69.026 127.446C68.7207 127.674 68.568 127.95 68.568 128.273H67.2965C67.2965 127.904 67.4264 127.549 67.6862 127.207C67.9505 126.861 68.3059 126.587 68.7526 126.387C69.2037 126.186 69.6982 126.086 70.236 126.086C71.0882 126.086 71.7558 126.3 72.2389 126.729C72.722 127.152 72.9726 127.738 72.9908 128.485V131.89C72.9908 132.569 73.0774 133.109 73.2506 133.51V133.619H71.9244ZM69.8258 132.655C70.2223 132.655 70.5983 132.553 70.9537 132.348C71.3092 132.143 71.5667 131.876 71.7262 131.548V130.03H70.735C69.1855 130.03 68.4108 130.484 68.4108 131.391C68.4108 131.787 68.5429 132.097 68.8073 132.32C69.0716 132.544 69.4111 132.655 69.8258 132.655ZM77.3043 131.903L79.1364 126.223H80.4283L77.776 133.619H76.8121L74.1324 126.223H75.4244L77.3043 131.903ZM86.1022 133.619C86.0293 133.473 85.97 133.214 85.9244 132.84C85.3365 133.451 84.6347 133.756 83.819 133.756C83.0898 133.756 82.4905 133.551 82.0211 133.141C81.5563 132.726 81.3239 132.202 81.3239 131.568C81.3239 130.798 81.6155 130.201 82.1989 129.777C82.7867 129.349 83.6116 129.135 84.6735 129.135H85.9039V128.554C85.9039 128.112 85.7718 127.761 85.5074 127.501C85.2431 127.237 84.8535 127.104 84.3385 127.104C83.8873 127.104 83.5091 127.218 83.2037 127.446C82.8984 127.674 82.7457 127.95 82.7457 128.273H81.4742C81.4742 127.904 81.6041 127.549 81.8639 127.207C82.1282 126.861 82.4837 126.587 82.9303 126.387C83.3815 126.186 83.8759 126.086 84.4137 126.086C85.2659 126.086 85.9336 126.3 86.4166 126.729C86.8997 127.152 87.1503 127.738 87.1686 128.485V131.89C87.1686 132.569 87.2552 133.109 87.4283 133.51V133.619H86.1022ZM84.0035 132.655C84.4 132.655 84.776 132.553 85.1315 132.348C85.4869 132.143 85.7444 131.876 85.9039 131.548V130.03H84.9127C83.3632 130.03 82.5885 130.484 82.5885 131.391C82.5885 131.787 82.7207 132.097 82.985 132.32C83.2493 132.544 83.5888 132.655 84.0035 132.655ZM92.2819 129.183C91.1562 128.859 90.3359 128.463 89.8209 127.993C89.3105 127.519 89.0553 126.936 89.0553 126.243C89.0553 125.459 89.3675 124.812 89.9918 124.302C90.6207 123.787 91.4365 123.529 92.4391 123.529C93.1227 123.529 93.7311 123.661 94.2643 123.926C94.802 124.19 95.2168 124.555 95.5084 125.02C95.8046 125.484 95.9528 125.993 95.9528 126.544H94.6334C94.6334 125.942 94.442 125.471 94.0592 125.129C93.6764 124.783 93.1364 124.609 92.4391 124.609C91.792 124.609 91.2861 124.753 90.9215 125.04C90.5615 125.323 90.3815 125.717 90.3815 126.223C90.3815 126.628 90.5524 126.972 90.8942 127.255C91.2405 127.533 91.8261 127.788 92.651 128.021C93.4804 128.253 94.1276 128.51 94.5924 128.793C95.0618 129.071 95.4082 129.397 95.6315 129.771C95.8593 130.144 95.9733 130.584 95.9733 131.09C95.9733 131.896 95.6588 132.544 95.0299 133.031C94.401 133.514 93.5602 133.756 92.5074 133.756C91.8239 133.756 91.1858 133.626 90.5934 133.366C90.0009 133.102 89.5429 132.742 89.2194 132.286C88.9003 131.83 88.7408 131.313 88.7408 130.734H90.0602C90.0602 131.336 90.2812 131.812 90.7233 132.163C91.1699 132.509 91.7646 132.683 92.5074 132.683C93.2002 132.683 93.7311 132.541 94.1002 132.259C94.4694 131.976 94.6539 131.591 94.6539 131.104C94.6539 130.616 94.483 130.24 94.1412 129.976C93.7994 129.707 93.1796 129.442 92.2819 129.183ZM100.43 132.724C100.881 132.724 101.276 132.587 101.613 132.313C101.95 132.04 102.137 131.698 102.173 131.288H103.37C103.347 131.712 103.201 132.115 102.932 132.498C102.663 132.881 102.303 133.186 101.852 133.414C101.406 133.642 100.932 133.756 100.43 133.756C99.4231 133.756 98.6211 133.421 98.024 132.751C97.4316 132.076 97.1354 131.156 97.1354 129.989V129.777C97.1354 129.057 97.2675 128.417 97.5319 127.856C97.7962 127.296 98.1744 126.861 98.6666 126.551C99.1634 126.241 99.749 126.086 100.423 126.086C101.253 126.086 101.941 126.334 102.488 126.831C103.039 127.328 103.333 127.973 103.37 128.766H102.173C102.137 128.287 101.955 127.895 101.627 127.59C101.303 127.28 100.902 127.125 100.423 127.125C99.7809 127.125 99.2819 127.357 98.9264 127.822C98.5755 128.283 98.4 128.95 98.4 129.825V130.064C98.4 130.917 98.5755 131.573 98.9264 132.033C99.2773 132.493 99.7786 132.724 100.43 132.724ZM108.367 127.357C108.175 127.326 107.968 127.31 107.745 127.31C106.915 127.31 106.352 127.663 106.056 128.369V133.619H104.792V126.223H106.022L106.043 127.077C106.457 126.416 107.045 126.086 107.806 126.086C108.052 126.086 108.239 126.118 108.367 126.182V127.357ZM110.91 133.619H109.645V126.223H110.91V133.619ZM109.543 124.261C109.543 124.056 109.604 123.882 109.727 123.741C109.855 123.6 110.042 123.529 110.288 123.529C110.534 123.529 110.721 123.6 110.848 123.741C110.976 123.882 111.04 124.056 111.04 124.261C111.04 124.466 110.976 124.637 110.848 124.773C110.721 124.91 110.534 124.979 110.288 124.979C110.042 124.979 109.855 124.91 109.727 124.773C109.604 124.637 109.543 124.466 109.543 124.261ZM119.188 130.003C119.188 131.129 118.931 132.035 118.416 132.724C117.901 133.412 117.203 133.756 116.324 133.756C115.426 133.756 114.72 133.471 114.205 132.901V136.463H112.94V126.223H114.095L114.157 127.043C114.672 126.405 115.387 126.086 116.303 126.086C117.192 126.086 117.894 126.421 118.409 127.091C118.928 127.761 119.188 128.693 119.188 129.887V130.003ZM117.923 129.859C117.923 129.025 117.746 128.367 117.39 127.884C117.035 127.401 116.547 127.159 115.927 127.159C115.162 127.159 114.588 127.499 114.205 128.178V131.712C114.583 132.386 115.162 132.724 115.941 132.724C116.547 132.724 117.028 132.484 117.383 132.006C117.743 131.523 117.923 130.807 117.923 129.859ZM122.517 124.432V126.223H123.898V127.2H122.517V131.787C122.517 132.083 122.579 132.307 122.702 132.457C122.825 132.603 123.034 132.676 123.331 132.676C123.477 132.676 123.677 132.648 123.932 132.594V133.619C123.6 133.71 123.276 133.756 122.962 133.756C122.396 133.756 121.97 133.585 121.683 133.243C121.396 132.901 121.253 132.416 121.253 131.787V127.2H119.906V126.223H121.253V124.432H122.517Z" fill="#3D3B3C"/>
</svg>
