<svg width="185" height="213" viewBox="0 0 185 213" fill="none" xmlns="http://www.w3.org/2000/svg">
<path d="M21.0853 189.213C21.3851 188.293 22.687 188.293 22.9869 189.213L24.738 194.587C24.8721 194.999 25.2559 195.277 25.6888 195.277H31.3495C32.3189 195.277 32.7213 196.518 31.9363 197.087L27.3614 200.402C27.0099 200.657 26.8629 201.109 26.9973 201.521L28.7459 206.888C29.0459 207.809 27.9926 208.576 27.2084 208.008L22.6228 204.685C22.2728 204.432 21.7994 204.432 21.4494 204.685L16.8638 208.008C16.0796 208.576 15.0263 207.809 15.3263 206.888L17.0749 201.521C17.2093 201.109 17.0622 200.657 16.7108 200.402L12.1359 197.087C11.3509 196.518 11.7532 195.277 12.7226 195.277H18.3834C18.8163 195.277 19.2001 194.999 19.3342 194.587L21.0853 189.213Z" fill="#120D0E"/>
<path d="M56.1823 189.213C56.4822 188.293 57.7841 188.293 58.0839 189.213L59.835 194.587C59.9691 194.999 60.3529 195.277 60.7858 195.277H66.4466C67.416 195.277 67.8183 196.518 67.0333 197.087L62.4584 200.402C62.107 200.657 61.9599 201.109 62.0943 201.521L63.8429 206.888C64.1429 207.809 63.0897 208.576 62.3054 208.008L57.7199 204.685C57.3698 204.432 56.8965 204.432 56.5464 204.685L51.9609 208.008C51.1766 208.576 50.1233 207.809 50.4233 206.888L52.1719 201.521C52.3064 201.109 52.1593 200.657 51.8078 200.402L47.233 197.087C46.4479 196.518 46.8503 195.277 47.8197 195.277H53.4804C53.9134 195.277 54.2971 194.999 54.4312 194.587L56.1823 189.213Z" fill="#120D0E"/>
<path d="M91.2794 189.213C91.5792 188.293 92.8811 188.293 93.181 189.213L94.9321 194.587C95.0662 194.999 95.45 195.277 95.8829 195.277H101.544C102.513 195.277 102.915 196.518 102.13 197.087L97.5555 200.402C97.204 200.657 97.0569 201.109 97.1914 201.521L98.94 206.888C99.24 207.809 98.1867 208.576 97.4024 208.008L92.8169 204.685C92.4669 204.432 91.9935 204.432 91.6435 204.685L87.0579 208.008C86.2737 208.576 85.2204 207.809 85.5204 206.888L87.269 201.521C87.4034 201.109 87.2563 200.657 86.9049 200.402L82.33 197.087C81.545 196.518 81.9473 195.277 82.9167 195.277H88.5775C89.0104 195.277 89.3942 194.999 89.5283 194.587L91.2794 189.213Z" fill="#120D0E"/>
<path d="M126.377 189.213C126.676 188.293 127.978 188.293 128.278 189.213L130.029 194.587C130.163 194.999 130.547 195.277 130.98 195.277H136.641C137.61 195.277 138.013 196.518 137.228 197.087L132.653 200.402C132.301 200.657 132.154 201.109 132.289 201.521L134.037 206.888C134.337 207.809 133.284 208.576 132.5 208.008L127.914 204.685C127.564 204.432 127.091 204.432 126.741 204.685L122.155 208.008C121.371 208.576 120.318 207.809 120.618 206.888L122.366 201.521C122.501 201.109 122.354 200.657 122.002 200.402L117.427 197.087C116.642 196.518 117.044 195.277 118.014 195.277H123.675C124.108 195.277 124.491 194.999 124.625 194.587L126.377 189.213Z" fill="#120D0E"/>
<path d="M161.474 189.213C161.774 188.293 163.075 188.293 163.375 189.213L165.126 194.587C165.261 194.999 165.644 195.277 166.077 195.277H171.738C172.707 195.277 173.11 196.518 172.325 197.087L167.75 200.402C167.398 200.657 167.251 201.109 167.386 201.521L169.134 206.888C169.434 207.809 168.381 208.576 167.597 208.008L163.011 204.685C162.661 204.432 162.188 204.432 161.838 204.685L157.252 208.008C156.468 208.576 155.415 207.809 155.715 206.888L157.463 201.521C157.598 201.109 157.451 200.657 157.099 200.402L152.524 197.087C151.739 196.518 152.142 195.277 153.111 195.277H158.772C159.205 195.277 159.588 194.999 159.723 194.587L161.474 189.213Z" fill="#BEBEBE"/>
<g clip-path="url(#clip0)">
<path d="M129.055 43.0859C125.558 43.1057 122.531 43.9453 119.992 45.1955C119.055 43.34 118.117 41.7187 117.961 40.508C117.785 39.1017 117.57 38.2422 117.785 36.5627C118 34.8828 118.976 32.5 118.976 32.3047C118.957 32.1289 118.761 31.2695 116.75 31.25C114.738 31.2305 113 31.6406 112.805 32.168C112.609 32.6953 112.219 33.9062 111.965 35.1562C111.613 36.9922 107.941 43.4961 105.851 46.9141C105.168 45.5859 104.582 44.4141 104.465 43.4764C104.289 42.0703 104.074 41.2107 104.289 39.5312C104.504 37.8514 105.48 35.4687 105.48 35.2734C105.461 35.0976 105.266 34.2383 103.254 34.2187C101.242 34.1992 99.504 34.6094 99.3087 35.1367C99.1134 35.6641 98.8985 36.9141 98.4688 38.125C98.0585 39.3359 93.1757 50.1953 91.9061 53.0273C91.2616 54.4726 90.6954 55.625 90.285 56.4062C89.8749 57.1875 90.2655 56.4648 90.2265 56.543C89.8749 57.207 89.6796 57.5781 89.6796 57.5781V57.5978C89.4061 58.0861 89.1132 58.5547 88.9763 58.5547C88.8786 58.5547 88.6833 57.2461 89.0153 55.4494C89.738 51.6797 91.4958 45.801 91.4765 45.5861C91.4765 45.4885 91.8083 44.4531 90.3434 43.926C88.9177 43.3986 88.41 44.2775 88.2927 44.2775C88.1755 44.2775 88.0778 44.59 88.0778 44.59C88.0778 44.59 89.6598 37.9691 85.0505 37.9691C82.1598 37.9691 78.1755 41.1137 76.2028 43.9848C74.9528 44.6683 72.2966 46.1135 69.4841 47.6566C68.4098 48.2426 67.2966 48.8676 66.2419 49.434L66.0272 49.1992C60.4413 43.2422 50.1093 39.0234 50.5389 31.0156C50.6952 28.1055 51.7108 20.4297 70.3829 11.1328C85.6759 3.51563 97.922 5.60547 100.051 10.2539C103.078 16.8945 93.5077 29.2383 77.6095 31.0156C71.5548 31.6992 68.371 29.3555 67.5704 28.4766C66.7306 27.5586 66.6134 27.5195 66.3009 27.6953C65.7931 27.9687 66.1056 28.7891 66.3009 29.2773C66.7696 30.5078 68.7227 32.6953 72.0431 33.7891C74.953 34.7461 82.0626 35.2734 90.6563 31.9531C100.285 28.2227 107.805 17.8711 105.598 9.21875C103.352 0.41016 88.7423 -2.48046 74.9337 2.42188C66.7108 5.35156 57.8046 9.92188 51.3983 15.918C43.7811 23.0273 42.5702 29.2383 43.078 31.8164C44.8555 41.0156 57.5311 47.0117 62.6093 51.4453C62.3554 51.5818 62.121 51.7185 61.9061 51.8359C59.3671 53.0857 49.6991 58.1445 47.2772 63.4959C44.5429 69.5506 47.7069 73.9062 49.8163 74.4922C56.3397 76.3086 63.0194 73.0469 66.6327 67.6758C70.2263 62.3047 69.7968 55.332 68.1366 52.1484L68.0778 52.0312L70.07 50.8594C71.3593 50.0976 72.6288 49.3945 73.7419 48.7889C73.1171 50.4881 72.6677 52.4998 72.4335 55.4295C72.16 58.8672 73.5663 63.3201 75.4218 65.0779C76.2421 65.8394 77.2186 65.8592 77.8241 65.8592C79.9725 65.8592 80.9491 64.0816 82.0233 61.9529C83.3515 59.3553 84.5233 56.3474 84.5233 56.3474C84.5233 56.3474 83.0585 64.492 87.0624 64.492C88.5272 64.492 89.9921 62.5974 90.6561 61.6209V61.6404C90.6561 61.6404 90.6952 61.5818 90.7733 61.4451C90.8553 61.3239 90.9334 61.2002 91.0077 61.0742V61.0351C91.5936 60.0195 92.9022 57.6953 94.8554 53.8476C97.3747 48.8867 99.7968 42.6758 99.7968 42.6758C99.7968 42.6758 100.031 44.1992 100.754 46.6992C101.183 48.1838 102.121 49.8047 102.843 51.3867C102.258 52.207 101.906 52.676 101.906 52.676L101.925 52.6955C101.457 53.3205 100.929 53.9848 100.383 54.6486C98.3905 57.0314 96.0077 59.7465 95.6952 60.5277C95.3241 61.4455 95.4022 62.1291 96.1249 62.6762C96.6522 63.0668 97.5897 63.1447 98.5858 63.0668C100.383 62.9494 101.633 62.5004 102.258 62.2267C103.234 61.8752 104.348 61.3478 105.422 60.5666C107.375 59.1215 108.566 57.0707 108.449 54.3363C108.391 52.8324 107.902 51.348 107.297 49.9418C107.473 49.6879 107.649 49.4338 107.824 49.1605C110.91 44.6486 113.293 39.6879 113.293 39.6879C113.293 39.6879 113.527 41.2113 114.25 43.7113C114.621 44.9808 115.363 46.3678 116.027 47.7349C113.137 50.0982 111.32 52.8326 110.695 54.6295C109.543 57.9498 110.441 59.4537 112.141 59.8053C112.902 59.9615 113.996 59.61 114.816 59.2584C115.832 58.9264 117.062 58.3597 118.195 57.5201C120.148 56.0748 122.023 54.0631 121.926 51.3482C121.867 50.0982 121.535 48.8678 121.086 47.6959C123.547 46.6803 126.73 46.0943 130.773 46.5826C139.465 47.5982 141.183 53.0279 140.852 55.2935C140.52 57.5594 138.703 58.8092 138.098 59.1998C137.492 59.5709 137.297 59.7078 137.355 59.981C137.433 60.3914 137.707 60.3717 138.234 60.2937C138.957 60.1764 142.805 58.4383 142.961 54.2588C143.195 48.8869 138.098 43.0275 129.055 43.0859ZM62.0233 65.6836C59.1522 68.8281 55.1093 70.0195 53.3905 69.0039C51.535 67.9297 52.2575 63.3008 55.7929 59.9609C57.9413 57.9297 60.7343 56.0547 62.5702 54.9023C62.9804 54.6484 63.6054 54.2775 64.3475 53.8281C64.4647 53.7502 64.5429 53.7109 64.5429 53.7109C64.6796 53.6328 64.8358 53.5351 64.9921 53.4375C66.3007 58.2031 65.0507 62.3828 62.0233 65.6836ZM83.0194 51.4062C82.0233 53.8476 79.914 60.1172 78.6444 59.7656C77.5505 59.4726 76.8866 54.7266 78.4294 50.0391C79.2106 47.6756 80.8708 44.8633 81.8474 43.7693C83.4296 42.0115 85.1481 41.4256 85.578 42.1482C86.0858 43.0859 83.6444 49.8828 83.0194 51.4062ZM100.344 59.6875C99.914 59.9025 99.5233 60.0586 99.3475 59.9416C99.2108 59.8635 99.5231 59.5705 99.5231 59.5705C99.5231 59.5705 101.691 57.2463 102.55 56.1721C103.039 55.5473 103.625 54.8246 104.25 54.0041V54.2385C104.25 57.0508 101.555 58.9258 100.344 59.6875ZM113.703 56.6406C113.39 56.4062 113.43 55.6836 114.484 53.418C114.894 52.5195 115.832 51.0156 117.453 49.5898C117.648 50.1758 117.766 50.742 117.746 51.2695C117.726 54.7851 115.226 56.0937 113.703 56.6406Z" fill="#CF649A"/>
</g>
<path d="M79.1031 127.183C77.9775 126.859 77.1572 126.463 76.6422 125.993C76.1318 125.519 75.8766 124.936 75.8766 124.243C75.8766 123.459 76.1888 122.812 76.8131 122.302C77.442 121.787 78.2578 121.529 79.2604 121.529C79.944 121.529 80.5524 121.661 81.0856 121.926C81.6233 122.19 82.038 122.555 82.3297 123.02C82.6259 123.484 82.774 123.993 82.774 124.544H81.4547C81.4547 123.942 81.2633 123.471 80.8805 123.129C80.4977 122.783 79.9576 122.609 79.2604 122.609C78.6132 122.609 78.1074 122.753 77.7428 123.04C77.3828 123.323 77.2028 123.717 77.2028 124.223C77.2028 124.628 77.3737 124.972 77.7155 125.255C78.0618 125.533 78.6474 125.788 79.4723 126.021C80.3017 126.253 80.9489 126.51 81.4137 126.793C81.8831 127.071 82.2295 127.397 82.4528 127.771C82.6806 128.144 82.7946 128.584 82.7946 129.09C82.7946 129.896 82.4801 130.544 81.8512 131.031C81.2223 131.514 80.3815 131.756 79.3287 131.756C78.6451 131.756 78.0071 131.626 77.4147 131.366C76.8222 131.102 76.3642 130.742 76.0406 130.286C75.7216 129.83 75.5621 129.313 75.5621 128.734H76.8815C76.8815 129.336 77.1025 129.812 77.5446 130.163C77.9912 130.509 78.5859 130.683 79.3287 130.683C80.0214 130.683 80.5524 130.541 80.9215 130.259C81.2906 129.976 81.4752 129.591 81.4752 129.104C81.4752 128.616 81.3043 128.24 80.9625 127.976C80.6207 127.707 80.0009 127.442 79.1031 127.183ZM89.9791 129.021H85.8092L84.8727 131.619H83.5192L87.3199 121.666H88.4684L92.276 131.619H90.9293L89.9791 129.021ZM86.2057 127.941H89.5895L87.8942 123.286L86.2057 127.941ZM96.5485 127.183C95.4228 126.859 94.6025 126.463 94.0875 125.993C93.5771 125.519 93.3219 124.936 93.3219 124.243C93.3219 123.459 93.6341 122.812 94.2584 122.302C94.8873 121.787 95.7031 121.529 96.7057 121.529C97.3893 121.529 97.9977 121.661 98.5309 121.926C99.0686 122.19 99.4834 122.555 99.775 123.02C100.071 123.484 100.219 123.993 100.219 124.544H98.9C98.9 123.942 98.7086 123.471 98.3258 123.129C97.943 122.783 97.403 122.609 96.7057 122.609C96.0586 122.609 95.5527 122.753 95.1881 123.04C94.8281 123.323 94.6481 123.717 94.6481 124.223C94.6481 124.628 94.819 124.972 95.1608 125.255C95.5071 125.533 96.0927 125.788 96.9176 126.021C97.747 126.253 98.3942 126.51 98.859 126.793C99.3284 127.071 99.6748 127.397 99.8981 127.771C100.126 128.144 100.24 128.584 100.24 129.09C100.24 129.896 99.9254 130.544 99.2965 131.031C98.6676 131.514 97.8268 131.756 96.774 131.756C96.0905 131.756 95.4524 131.626 94.86 131.366C94.2675 131.102 93.8095 130.742 93.486 130.286C93.167 129.83 93.0074 129.313 93.0074 128.734H94.3268C94.3268 129.336 94.5478 129.812 94.9899 130.163C95.4365 130.509 96.0312 130.683 96.774 130.683C97.4668 130.683 97.9977 130.541 98.3668 130.259C98.736 129.976 98.9205 129.591 98.9205 129.104C98.9205 128.616 98.7496 128.24 98.4078 127.976C98.066 127.707 97.4462 127.442 96.5485 127.183ZM104.861 127.183C103.735 126.859 102.915 126.463 102.4 125.993C101.89 125.519 101.634 124.936 101.634 124.243C101.634 123.459 101.947 122.812 102.571 122.302C103.2 121.787 104.016 121.529 105.018 121.529C105.702 121.529 106.31 121.661 106.843 121.926C107.381 122.19 107.796 122.555 108.088 123.02C108.384 123.484 108.532 123.993 108.532 124.544H107.213C107.213 123.942 107.021 123.471 106.638 123.129C106.255 122.783 105.715 122.609 105.018 122.609C104.371 122.609 103.865 122.753 103.501 123.04C103.141 123.323 102.961 123.717 102.961 124.223C102.961 124.628 103.131 124.972 103.473 125.255C103.82 125.533 104.405 125.788 105.23 126.021C106.06 126.253 106.707 126.51 107.172 126.793C107.641 127.071 107.987 127.397 108.211 127.771C108.438 128.144 108.552 128.584 108.552 129.09C108.552 129.896 108.238 130.544 107.609 131.031C106.98 131.514 106.139 131.756 105.087 131.756C104.403 131.756 103.765 131.626 103.172 131.366C102.58 131.102 102.122 130.742 101.798 130.286C101.479 129.83 101.32 129.313 101.32 128.734H102.639C102.639 129.336 102.86 129.812 103.302 130.163C103.749 130.509 104.344 130.683 105.087 130.683C105.779 130.683 106.31 130.541 106.679 130.259C107.048 129.976 107.233 129.591 107.233 129.104C107.233 128.616 107.062 128.24 106.72 127.976C106.379 127.707 105.759 127.442 104.861 127.183Z" fill="#3D3B3C"/>
<defs>
<clipPath id="clip0">
<rect width="100" height="75" fill="white" transform="translate(43)"/>
</clipPath>
</defs>
</svg>
